<mxfile host="app.diagrams.net" modified="2023-04-06T03:02:07.026Z" agent="Mozilla/5.0 (Macintosh; Intel Mac OS X 10_15_7) AppleWebKit/537.36 (KHTML, like Gecko) Chrome/111.0.0.0 Safari/537.36" etag="_m-w1TXkMYtd-rosps27" version="21.1.2" type="github">
  <diagram name="Page-1" id="ROVnsx39j-fxukVFqsqq">
    <mxGraphModel dx="2879" dy="1282" grid="1" gridSize="10" guides="1" tooltips="1" connect="1" arrows="1" fold="1" page="1" pageScale="1" pageWidth="827" pageHeight="1169" math="0" shadow="0">
      <root>
        <mxCell id="0" />
        <mxCell id="1" parent="0" />
        <mxCell id="RhuaSglBGjlRyo17qpxD-1" value="" style="rounded=1;whiteSpace=wrap;html=1;strokeWidth=1;fontSize=16;fillColor=none;fontStyle=0;dashed=1;" vertex="1" parent="1">
          <mxGeometry x="-467" y="110" width="160" height="210" as="geometry" />
        </mxCell>
        <mxCell id="RhuaSglBGjlRyo17qpxD-2" style="edgeStyle=orthogonalEdgeStyle;rounded=0;orthogonalLoop=1;jettySize=auto;html=1;exitX=0.5;exitY=0;exitDx=0;exitDy=0;strokeWidth=1;fontSize=20;entryX=0.495;entryY=0.93;entryDx=0;entryDy=0;entryPerimeter=0;endArrow=blockThin;endFill=1;fontStyle=0" edge="1" parent="1" source="RhuaSglBGjlRyo17qpxD-4" target="RhuaSglBGjlRyo17qpxD-20">
          <mxGeometry relative="1" as="geometry" />
        </mxCell>
        <mxCell id="RhuaSglBGjlRyo17qpxD-3" style="edgeStyle=orthogonalEdgeStyle;rounded=0;orthogonalLoop=1;jettySize=auto;html=1;exitX=0.5;exitY=0;exitDx=0;exitDy=0;entryX=0;entryY=0.5;entryDx=0;entryDy=0;strokeWidth=1;fontSize=20;endArrow=blockThin;endFill=1;fontStyle=0" edge="1" parent="1" source="RhuaSglBGjlRyo17qpxD-4" target="RhuaSglBGjlRyo17qpxD-22">
          <mxGeometry relative="1" as="geometry">
            <Array as="points">
              <mxPoint x="-357" y="200" />
              <mxPoint x="-417" y="200" />
              <mxPoint x="-417" y="130" />
            </Array>
          </mxGeometry>
        </mxCell>
        <mxCell id="RhuaSglBGjlRyo17qpxD-4" value="Add &amp; Norm" style="whiteSpace=wrap;align=center;verticalAlign=middle;fontStyle=0;strokeWidth=1;fillColor=#FFFFCC" vertex="1" parent="1">
          <mxGeometry x="-397" y="210" width="80" height="20" as="geometry" />
        </mxCell>
        <mxCell id="RhuaSglBGjlRyo17qpxD-5" style="edgeStyle=orthogonalEdgeStyle;rounded=0;orthogonalLoop=1;jettySize=auto;html=1;exitX=0.5;exitY=0;exitDx=0;exitDy=0;entryX=0.5;entryY=1;entryDx=0;entryDy=0;strokeWidth=1;endArrow=blockThin;endFill=1;fontStyle=0" edge="1" parent="1" source="RhuaSglBGjlRyo17qpxD-6" target="RhuaSglBGjlRyo17qpxD-4">
          <mxGeometry relative="1" as="geometry" />
        </mxCell>
        <mxCell id="RhuaSglBGjlRyo17qpxD-6" value="Multi-Head Attention" style="whiteSpace=wrap;align=center;verticalAlign=middle;fontStyle=0;strokeWidth=1;fillColor=#fad7ac;strokeColor=#000000;" vertex="1" parent="1">
          <mxGeometry x="-397" y="240" width="80" height="40" as="geometry" />
        </mxCell>
        <mxCell id="RhuaSglBGjlRyo17qpxD-7" style="edgeStyle=orthogonalEdgeStyle;rounded=0;orthogonalLoop=1;jettySize=auto;html=1;exitX=0.5;exitY=0;exitDx=0;exitDy=0;entryX=0.5;entryY=1;entryDx=0;entryDy=0;fontSize=20;strokeWidth=1;endArrow=blockThin;endFill=1;fontStyle=0" edge="1" parent="1" source="RhuaSglBGjlRyo17qpxD-8" target="RhuaSglBGjlRyo17qpxD-15">
          <mxGeometry relative="1" as="geometry" />
        </mxCell>
        <mxCell id="RhuaSglBGjlRyo17qpxD-8" value="Input Embedding" style="whiteSpace=wrap;align=center;verticalAlign=middle;fontStyle=0;strokeWidth=1;fillColor=#fad9d5;strokeColor=#000000;" vertex="1" parent="1">
          <mxGeometry x="-607" y="200" width="80" height="30" as="geometry" />
        </mxCell>
        <mxCell id="RhuaSglBGjlRyo17qpxD-9" style="edgeStyle=orthogonalEdgeStyle;rounded=0;orthogonalLoop=1;jettySize=auto;html=1;exitX=0.5;exitY=0;exitDx=0;exitDy=0;strokeWidth=1;fontSize=20;endArrow=blockThin;endFill=1;fontStyle=0" edge="1" parent="1" target="RhuaSglBGjlRyo17qpxD-6">
          <mxGeometry relative="1" as="geometry">
            <mxPoint x="-357" y="320" as="sourcePoint" />
          </mxGeometry>
        </mxCell>
        <mxCell id="RhuaSglBGjlRyo17qpxD-10" style="edgeStyle=orthogonalEdgeStyle;rounded=0;orthogonalLoop=1;jettySize=auto;html=1;exitX=0.5;exitY=0;exitDx=0;exitDy=0;entryX=0.75;entryY=1;entryDx=0;entryDy=0;strokeWidth=1;fontSize=20;endArrow=blockThin;endFill=1;fontStyle=0" edge="1" parent="1" target="RhuaSglBGjlRyo17qpxD-6">
          <mxGeometry relative="1" as="geometry">
            <mxPoint x="-357" y="320" as="sourcePoint" />
            <Array as="points">
              <mxPoint x="-357" y="300" />
              <mxPoint x="-337" y="300" />
            </Array>
          </mxGeometry>
        </mxCell>
        <mxCell id="RhuaSglBGjlRyo17qpxD-11" style="edgeStyle=orthogonalEdgeStyle;rounded=0;orthogonalLoop=1;jettySize=auto;html=1;exitX=0.5;exitY=0;exitDx=0;exitDy=0;entryX=0.25;entryY=1;entryDx=0;entryDy=0;strokeWidth=1;fontSize=20;endArrow=blockThin;endFill=1;fontStyle=0" edge="1" parent="1" source="RhuaSglBGjlRyo17qpxD-13" target="RhuaSglBGjlRyo17qpxD-6">
          <mxGeometry relative="1" as="geometry">
            <mxPoint x="-357" y="320" as="sourcePoint" />
            <Array as="points">
              <mxPoint x="-567" y="100" />
              <mxPoint x="-507" y="100" />
              <mxPoint x="-507" y="330" />
              <mxPoint x="-357" y="330" />
              <mxPoint x="-357" y="300" />
              <mxPoint x="-377" y="300" />
            </Array>
          </mxGeometry>
        </mxCell>
        <mxCell id="RhuaSglBGjlRyo17qpxD-12" style="edgeStyle=orthogonalEdgeStyle;rounded=0;orthogonalLoop=1;jettySize=auto;html=1;exitX=0.5;exitY=0;exitDx=0;exitDy=0;entryX=0;entryY=0.5;entryDx=0;entryDy=0;strokeWidth=1;fontSize=20;endArrow=blockThin;endFill=1;fontStyle=0" edge="1" parent="1" source="RhuaSglBGjlRyo17qpxD-13" target="RhuaSglBGjlRyo17qpxD-4">
          <mxGeometry relative="1" as="geometry">
            <mxPoint x="-357" y="320" as="sourcePoint" />
            <Array as="points">
              <mxPoint x="-567" y="100" />
              <mxPoint x="-507" y="100" />
              <mxPoint x="-507" y="330" />
              <mxPoint x="-357" y="330" />
              <mxPoint x="-357" y="310" />
              <mxPoint x="-417" y="310" />
              <mxPoint x="-417" y="220" />
            </Array>
          </mxGeometry>
        </mxCell>
        <mxCell id="RhuaSglBGjlRyo17qpxD-13" value="&lt;font style=&quot;font-size: 16px;&quot;&gt;+&lt;/font&gt;" style="ellipse;whiteSpace=wrap;html=1;aspect=fixed;strokeColor=#000000;strokeWidth=1;fontStyle=0" vertex="1" parent="1">
          <mxGeometry x="-577" y="110" width="20" height="20" as="geometry" />
        </mxCell>
        <mxCell id="RhuaSglBGjlRyo17qpxD-14" style="edgeStyle=orthogonalEdgeStyle;rounded=0;orthogonalLoop=1;jettySize=auto;html=1;exitX=0.5;exitY=0;exitDx=0;exitDy=0;fontSize=20;strokeWidth=1;endArrow=blockThin;endFill=1;fontStyle=0" edge="1" parent="1" source="RhuaSglBGjlRyo17qpxD-15" target="RhuaSglBGjlRyo17qpxD-13">
          <mxGeometry relative="1" as="geometry" />
        </mxCell>
        <mxCell id="RhuaSglBGjlRyo17qpxD-15" value="Positional Encoding" style="whiteSpace=wrap;align=center;verticalAlign=middle;fontStyle=0;strokeWidth=1;fillColor=#fad9d5;strokeColor=#000000;" vertex="1" parent="1">
          <mxGeometry x="-607" y="150" width="80" height="30" as="geometry" />
        </mxCell>
        <mxCell id="RhuaSglBGjlRyo17qpxD-16" value="" style="edgeStyle=segmentEdgeStyle;endArrow=blockThin;html=1;curved=0;rounded=0;endSize=8;startSize=8;fontSize=20;exitX=0.5;exitY=0;exitDx=0;exitDy=0;entryX=0;entryY=0.5;entryDx=0;entryDy=0;strokeWidth=1;endFill=1;fontStyle=0" edge="1" parent="1" source="RhuaSglBGjlRyo17qpxD-8" target="RhuaSglBGjlRyo17qpxD-13">
          <mxGeometry width="50" height="50" relative="1" as="geometry">
            <mxPoint x="-567" y="240" as="sourcePoint" />
            <mxPoint x="-367" y="220" as="targetPoint" />
            <Array as="points">
              <mxPoint x="-567" y="190" />
              <mxPoint x="-627" y="190" />
              <mxPoint x="-627" y="120" />
            </Array>
          </mxGeometry>
        </mxCell>
        <mxCell id="RhuaSglBGjlRyo17qpxD-17" style="edgeStyle=orthogonalEdgeStyle;rounded=0;orthogonalLoop=1;jettySize=auto;html=1;exitX=0.5;exitY=0;exitDx=0;exitDy=0;entryX=0.498;entryY=0.906;entryDx=0;entryDy=0;entryPerimeter=0;strokeWidth=1;fontSize=12;endArrow=blockThin;endFill=1;" edge="1" parent="1" source="RhuaSglBGjlRyo17qpxD-18" target="RhuaSglBGjlRyo17qpxD-34">
          <mxGeometry relative="1" as="geometry" />
        </mxCell>
        <mxCell id="RhuaSglBGjlRyo17qpxD-18" value="Output Embedding" style="whiteSpace=wrap;align=center;verticalAlign=middle;fontStyle=0;strokeWidth=1;fillColor=#fad9d5;strokeColor=#000000;" vertex="1" parent="1">
          <mxGeometry x="-34.5" y="225" width="80" height="30" as="geometry" />
        </mxCell>
        <mxCell id="RhuaSglBGjlRyo17qpxD-19" style="edgeStyle=orthogonalEdgeStyle;rounded=0;orthogonalLoop=1;jettySize=auto;html=1;exitX=0.5;exitY=0;exitDx=0;exitDy=0;strokeWidth=1;fontSize=20;endArrow=blockThin;endFill=1;fontStyle=0" edge="1" parent="1" source="RhuaSglBGjlRyo17qpxD-20" target="RhuaSglBGjlRyo17qpxD-22">
          <mxGeometry relative="1" as="geometry" />
        </mxCell>
        <mxCell id="RhuaSglBGjlRyo17qpxD-20" value="Feed Forward" style="whiteSpace=wrap;align=center;verticalAlign=middle;fontStyle=0;strokeWidth=1;fillColor=#CCFFFF;" vertex="1" parent="1">
          <mxGeometry x="-397" y="150" width="80" height="40" as="geometry" />
        </mxCell>
        <mxCell id="RhuaSglBGjlRyo17qpxD-21" style="edgeStyle=orthogonalEdgeStyle;rounded=0;orthogonalLoop=1;jettySize=auto;html=1;exitX=0.5;exitY=0;exitDx=0;exitDy=0;strokeWidth=1;fontSize=12;endArrow=blockThin;endFill=1;entryX=0.5;entryY=1;entryDx=0;entryDy=0;" edge="1" parent="1" source="RhuaSglBGjlRyo17qpxD-22" target="RhuaSglBGjlRyo17qpxD-53">
          <mxGeometry relative="1" as="geometry">
            <mxPoint x="-287" y="450" as="targetPoint" />
            <Array as="points">
              <mxPoint x="-357" y="100" />
              <mxPoint x="-287" y="100" />
              <mxPoint x="-287" y="380" />
              <mxPoint x="-147" y="380" />
            </Array>
          </mxGeometry>
        </mxCell>
        <mxCell id="RhuaSglBGjlRyo17qpxD-22" value="Add &amp; Norm" style="whiteSpace=wrap;align=center;verticalAlign=middle;fontStyle=0;strokeWidth=1;fillColor=#FFFFCC" vertex="1" parent="1">
          <mxGeometry x="-397" y="120" width="80" height="20" as="geometry" />
        </mxCell>
        <mxCell id="RhuaSglBGjlRyo17qpxD-23" value="Transformer-Encoder" style="text;html=1;strokeColor=none;fillColor=none;align=center;verticalAlign=middle;whiteSpace=wrap;rounded=0;fontSize=12;horizontal=0;fontStyle=0" vertex="1" parent="1">
          <mxGeometry x="-477" y="155" width="60" height="30" as="geometry" />
        </mxCell>
        <mxCell id="RhuaSglBGjlRyo17qpxD-24" value="(N-1)x" style="text;html=1;strokeColor=none;fillColor=none;align=center;verticalAlign=middle;whiteSpace=wrap;rounded=0;fontSize=12;fontStyle=0" vertex="1" parent="1">
          <mxGeometry x="-507" y="250" width="40" height="30" as="geometry" />
        </mxCell>
        <mxCell id="RhuaSglBGjlRyo17qpxD-25" style="edgeStyle=orthogonalEdgeStyle;rounded=0;orthogonalLoop=1;jettySize=auto;html=1;exitX=0.5;exitY=0;exitDx=0;exitDy=0;entryX=0.5;entryY=1;entryDx=0;entryDy=0;strokeWidth=1;fontSize=12;endArrow=blockThin;endFill=1;fontStyle=0" edge="1" parent="1" source="RhuaSglBGjlRyo17qpxD-26" target="RhuaSglBGjlRyo17qpxD-18">
          <mxGeometry relative="1" as="geometry" />
        </mxCell>
        <mxCell id="RhuaSglBGjlRyo17qpxD-26" value="FC" style="whiteSpace=wrap;align=center;verticalAlign=middle;fontStyle=0;strokeWidth=1;fillColor=#d0cee2;strokeColor=#000000;" vertex="1" parent="1">
          <mxGeometry x="-34.5" y="270" width="80" height="30" as="geometry" />
        </mxCell>
        <mxCell id="RhuaSglBGjlRyo17qpxD-27" style="edgeStyle=orthogonalEdgeStyle;rounded=0;orthogonalLoop=1;jettySize=auto;html=1;exitX=0.5;exitY=0;exitDx=0;exitDy=0;entryX=0.5;entryY=1;entryDx=0;entryDy=0;strokeWidth=1;fontSize=12;endArrow=blockThin;endFill=1;" edge="1" parent="1" source="RhuaSglBGjlRyo17qpxD-28" target="RhuaSglBGjlRyo17qpxD-30">
          <mxGeometry relative="1" as="geometry" />
        </mxCell>
        <mxCell id="RhuaSglBGjlRyo17qpxD-28" value="Input" style="shape=parallelogram;perimeter=parallelogramPerimeter;whiteSpace=wrap;html=1;fixedSize=1;strokeColor=#000000;strokeWidth=1;fontSize=12;fillColor=#fad9d5;fontStyle=0" vertex="1" parent="1">
          <mxGeometry x="-612" y="300" width="85" height="30" as="geometry" />
        </mxCell>
        <mxCell id="RhuaSglBGjlRyo17qpxD-29" style="edgeStyle=orthogonalEdgeStyle;rounded=0;orthogonalLoop=1;jettySize=auto;html=1;exitX=0.5;exitY=0;exitDx=0;exitDy=0;entryX=0.5;entryY=1;entryDx=0;entryDy=0;strokeWidth=1;fontSize=12;endArrow=blockThin;endFill=1;" edge="1" parent="1" source="RhuaSglBGjlRyo17qpxD-30" target="RhuaSglBGjlRyo17qpxD-8">
          <mxGeometry relative="1" as="geometry" />
        </mxCell>
        <mxCell id="RhuaSglBGjlRyo17qpxD-30" value="Tokenize" style="whiteSpace=wrap;align=center;verticalAlign=middle;fontStyle=0;strokeWidth=1;fillColor=#fad9d5;strokeColor=#000000;" vertex="1" parent="1">
          <mxGeometry x="-607" y="250" width="80" height="30" as="geometry" />
        </mxCell>
        <mxCell id="RhuaSglBGjlRyo17qpxD-31" value="G&lt;sub style=&quot;border-color: var(--border-color);&quot;&gt;1&lt;/sub&gt;, G&lt;sub style=&quot;border-color: var(--border-color);&quot;&gt;2&lt;/sub&gt;, ..., G&lt;sub style=&quot;border-color: var(--border-color);&quot;&gt;n&lt;/sub&gt;" style="text;html=1;strokeColor=none;fillColor=none;align=center;verticalAlign=middle;whiteSpace=wrap;rounded=0;fontSize=12;" vertex="1" parent="1">
          <mxGeometry x="-772" y="300" width="90" height="30" as="geometry" />
        </mxCell>
        <mxCell id="RhuaSglBGjlRyo17qpxD-32" value="&amp;lt;LANG&amp;gt;, G&lt;sub style=&quot;border-color: var(--border-color);&quot;&gt;1&lt;/sub&gt;, G&lt;sub style=&quot;border-color: var(--border-color);&quot;&gt;2&lt;/sub&gt;,&amp;nbsp;..., G&lt;sub style=&quot;border-color: var(--border-color);&quot;&gt;n&lt;/sub&gt;,&amp;nbsp;&amp;lt;END&amp;gt;" style="text;html=1;strokeColor=none;fillColor=none;align=center;verticalAlign=middle;whiteSpace=wrap;rounded=0;fontSize=12;" vertex="1" parent="1">
          <mxGeometry x="-827" y="250" width="200" height="30" as="geometry" />
        </mxCell>
        <mxCell id="RhuaSglBGjlRyo17qpxD-33" style="edgeStyle=orthogonalEdgeStyle;rounded=0;orthogonalLoop=1;jettySize=auto;html=1;exitX=0.5;exitY=0;exitDx=0;exitDy=0;strokeWidth=1;fontSize=12;endArrow=blockThin;endFill=1;" edge="1" parent="1" source="RhuaSglBGjlRyo17qpxD-34" target="RhuaSglBGjlRyo17qpxD-35">
          <mxGeometry relative="1" as="geometry" />
        </mxCell>
        <mxCell id="RhuaSglBGjlRyo17qpxD-34" value="Softmax &amp; Deduplicate &amp; Trim" style="whiteSpace=wrap;align=center;verticalAlign=middle;fontStyle=0;strokeWidth=1;fillColor=#fad9d5;strokeColor=#000000;" vertex="1" parent="1">
          <mxGeometry x="-34.5" y="165" width="80" height="40" as="geometry" />
        </mxCell>
        <mxCell id="RhuaSglBGjlRyo17qpxD-35" value="Output" style="shape=parallelogram;perimeter=parallelogramPerimeter;whiteSpace=wrap;html=1;fixedSize=1;strokeColor=#000000;strokeWidth=1;fontSize=12;fillColor=#fad9d5;fontStyle=0" vertex="1" parent="1">
          <mxGeometry x="-37" y="115" width="85" height="30" as="geometry" />
        </mxCell>
        <mxCell id="RhuaSglBGjlRyo17qpxD-36" value="P&lt;sub style=&quot;border-color: var(--border-color);&quot;&gt;1&lt;/sub&gt;, P&lt;sub style=&quot;border-color: var(--border-color);&quot;&gt;2&lt;/sub&gt;, ..., P&lt;sub style=&quot;border-color: var(--border-color);&quot;&gt;m&lt;/sub&gt;" style="text;html=1;strokeColor=none;fillColor=none;align=center;verticalAlign=middle;whiteSpace=wrap;rounded=0;fontSize=12;" vertex="1" parent="1">
          <mxGeometry x="99.25" y="115" width="90" height="30" as="geometry" />
        </mxCell>
        <mxCell id="RhuaSglBGjlRyo17qpxD-37" value="&amp;lt;LANG&amp;gt;, P&lt;sub style=&quot;border-color: var(--border-color);&quot;&gt;1&lt;/sub&gt;, P&lt;sub style=&quot;border-color: var(--border-color);&quot;&gt;1&lt;/sub&gt;,&amp;nbsp;P&lt;sub style=&quot;border-color: var(--border-color);&quot;&gt;2&lt;/sub&gt;, ..., P&lt;sub style=&quot;border-color: var(--border-color);&quot;&gt;m&lt;/sub&gt;, &amp;lt;END&amp;gt;, P&lt;sub&gt;m+1&lt;/sub&gt;, P&lt;sub&gt;m+2&lt;/sub&gt;, ..." style="text;html=1;strokeColor=none;fillColor=none;align=center;verticalAlign=middle;whiteSpace=wrap;rounded=0;fontSize=12;" vertex="1" parent="1">
          <mxGeometry x="65.5" y="165" width="157.5" height="30" as="geometry" />
        </mxCell>
        <mxCell id="RhuaSglBGjlRyo17qpxD-38" value="" style="rounded=1;whiteSpace=wrap;html=1;strokeWidth=1;fontSize=16;fillColor=none;fontStyle=0;dashed=1;" vertex="1" parent="1">
          <mxGeometry x="-257" y="20" width="160" height="210" as="geometry" />
        </mxCell>
        <mxCell id="RhuaSglBGjlRyo17qpxD-39" style="edgeStyle=orthogonalEdgeStyle;rounded=0;orthogonalLoop=1;jettySize=auto;html=1;exitX=0.5;exitY=0;exitDx=0;exitDy=0;strokeWidth=1;fontSize=20;entryX=0.495;entryY=0.93;entryDx=0;entryDy=0;entryPerimeter=0;endArrow=blockThin;endFill=1;fontStyle=0" edge="1" parent="1" source="RhuaSglBGjlRyo17qpxD-41" target="RhuaSglBGjlRyo17qpxD-47">
          <mxGeometry relative="1" as="geometry" />
        </mxCell>
        <mxCell id="RhuaSglBGjlRyo17qpxD-40" style="edgeStyle=orthogonalEdgeStyle;rounded=0;orthogonalLoop=1;jettySize=auto;html=1;exitX=0.5;exitY=0;exitDx=0;exitDy=0;entryX=0;entryY=0.5;entryDx=0;entryDy=0;strokeWidth=1;fontSize=20;endArrow=blockThin;endFill=1;fontStyle=0" edge="1" parent="1" source="RhuaSglBGjlRyo17qpxD-41" target="RhuaSglBGjlRyo17qpxD-49">
          <mxGeometry relative="1" as="geometry">
            <Array as="points">
              <mxPoint x="-147" y="110" />
              <mxPoint x="-207" y="110" />
              <mxPoint x="-207" y="40" />
            </Array>
          </mxGeometry>
        </mxCell>
        <mxCell id="RhuaSglBGjlRyo17qpxD-41" value="Add &amp; Norm" style="whiteSpace=wrap;align=center;verticalAlign=middle;fontStyle=0;strokeWidth=1;fillColor=#FFFFCC" vertex="1" parent="1">
          <mxGeometry x="-187" y="120" width="80" height="20" as="geometry" />
        </mxCell>
        <mxCell id="RhuaSglBGjlRyo17qpxD-42" style="edgeStyle=orthogonalEdgeStyle;rounded=0;orthogonalLoop=1;jettySize=auto;html=1;exitX=0.5;exitY=0;exitDx=0;exitDy=0;entryX=0.5;entryY=1;entryDx=0;entryDy=0;strokeWidth=1;endArrow=blockThin;endFill=1;fontStyle=0" edge="1" parent="1" source="RhuaSglBGjlRyo17qpxD-43" target="RhuaSglBGjlRyo17qpxD-41">
          <mxGeometry relative="1" as="geometry" />
        </mxCell>
        <mxCell id="RhuaSglBGjlRyo17qpxD-43" value="Multi-Head Attention" style="whiteSpace=wrap;align=center;verticalAlign=middle;fontStyle=0;strokeWidth=1;fillColor=#fad7ac;strokeColor=#000000;" vertex="1" parent="1">
          <mxGeometry x="-187" y="150" width="80" height="40" as="geometry" />
        </mxCell>
        <mxCell id="RhuaSglBGjlRyo17qpxD-44" style="edgeStyle=orthogonalEdgeStyle;rounded=0;orthogonalLoop=1;jettySize=auto;html=1;exitX=0.5;exitY=0;exitDx=0;exitDy=0;strokeWidth=1;fontSize=20;endArrow=blockThin;endFill=1;fontStyle=0" edge="1" parent="1" source="RhuaSglBGjlRyo17qpxD-56" target="RhuaSglBGjlRyo17qpxD-43">
          <mxGeometry relative="1" as="geometry">
            <mxPoint x="-147" y="230" as="sourcePoint" />
          </mxGeometry>
        </mxCell>
        <mxCell id="RhuaSglBGjlRyo17qpxD-45" style="edgeStyle=orthogonalEdgeStyle;rounded=0;orthogonalLoop=1;jettySize=auto;html=1;exitX=0.5;exitY=0;exitDx=0;exitDy=0;entryX=0.75;entryY=1;entryDx=0;entryDy=0;strokeWidth=1;fontSize=20;endArrow=blockThin;endFill=1;fontStyle=0" edge="1" parent="1" source="RhuaSglBGjlRyo17qpxD-56" target="RhuaSglBGjlRyo17qpxD-43">
          <mxGeometry relative="1" as="geometry">
            <mxPoint x="-147" y="230" as="sourcePoint" />
            <Array as="points">
              <mxPoint x="-147" y="210" />
              <mxPoint x="-127" y="210" />
            </Array>
          </mxGeometry>
        </mxCell>
        <mxCell id="RhuaSglBGjlRyo17qpxD-46" style="edgeStyle=orthogonalEdgeStyle;rounded=0;orthogonalLoop=1;jettySize=auto;html=1;exitX=0.5;exitY=0;exitDx=0;exitDy=0;strokeWidth=1;fontSize=20;endArrow=blockThin;endFill=1;fontStyle=0" edge="1" parent="1" source="RhuaSglBGjlRyo17qpxD-47" target="RhuaSglBGjlRyo17qpxD-49">
          <mxGeometry relative="1" as="geometry" />
        </mxCell>
        <mxCell id="RhuaSglBGjlRyo17qpxD-47" value="Feed Forward" style="whiteSpace=wrap;align=center;verticalAlign=middle;fontStyle=0;strokeWidth=1;fillColor=#CCFFFF;" vertex="1" parent="1">
          <mxGeometry x="-187" y="60" width="80" height="40" as="geometry" />
        </mxCell>
        <mxCell id="RhuaSglBGjlRyo17qpxD-48" style="edgeStyle=orthogonalEdgeStyle;rounded=0;orthogonalLoop=1;jettySize=auto;html=1;exitX=0.5;exitY=0;exitDx=0;exitDy=0;entryX=0.5;entryY=1;entryDx=0;entryDy=0;strokeWidth=1;fontSize=12;endArrow=blockThin;endFill=1;" edge="1" parent="1" source="RhuaSglBGjlRyo17qpxD-49" target="RhuaSglBGjlRyo17qpxD-26">
          <mxGeometry relative="1" as="geometry">
            <Array as="points">
              <mxPoint x="-147" y="10" />
              <mxPoint x="-71" y="10" />
              <mxPoint x="-71" y="330" />
              <mxPoint x="5" y="330" />
            </Array>
          </mxGeometry>
        </mxCell>
        <mxCell id="RhuaSglBGjlRyo17qpxD-49" value="Add &amp; Norm" style="whiteSpace=wrap;align=center;verticalAlign=middle;fontStyle=0;strokeWidth=1;fillColor=#FFFFCC" vertex="1" parent="1">
          <mxGeometry x="-187" y="30" width="80" height="20" as="geometry" />
        </mxCell>
        <mxCell id="RhuaSglBGjlRyo17qpxD-50" value="Transformer-Encoder" style="text;html=1;strokeColor=none;fillColor=none;align=center;verticalAlign=middle;whiteSpace=wrap;rounded=0;fontSize=12;horizontal=0;fontStyle=0" vertex="1" parent="1">
          <mxGeometry x="-267" y="65" width="60" height="30" as="geometry" />
        </mxCell>
        <mxCell id="RhuaSglBGjlRyo17qpxD-51" value="1x" style="text;html=1;strokeColor=none;fillColor=none;align=center;verticalAlign=middle;whiteSpace=wrap;rounded=0;fontSize=12;fontStyle=0" vertex="1" parent="1">
          <mxGeometry x="-277" y="190" width="20" height="30" as="geometry" />
        </mxCell>
        <mxCell id="RhuaSglBGjlRyo17qpxD-52" style="edgeStyle=orthogonalEdgeStyle;rounded=0;orthogonalLoop=1;jettySize=auto;html=1;exitX=0.5;exitY=0;exitDx=0;exitDy=0;entryX=0.5;entryY=1;entryDx=0;entryDy=0;fontSize=20;strokeWidth=1;endArrow=blockThin;endFill=1;fontStyle=0" edge="1" parent="1" source="RhuaSglBGjlRyo17qpxD-53" target="RhuaSglBGjlRyo17qpxD-58">
          <mxGeometry relative="1" as="geometry" />
        </mxCell>
        <mxCell id="RhuaSglBGjlRyo17qpxD-53" value="Repeat" style="whiteSpace=wrap;align=center;verticalAlign=middle;fontStyle=0;strokeWidth=1;fillColor=#fad9d5;strokeColor=#000000;" vertex="1" parent="1">
          <mxGeometry x="-187" y="330" width="80" height="30" as="geometry" />
        </mxCell>
        <mxCell id="RhuaSglBGjlRyo17qpxD-54" style="edgeStyle=orthogonalEdgeStyle;rounded=0;orthogonalLoop=1;jettySize=auto;html=1;exitX=0.5;exitY=0;exitDx=0;exitDy=0;entryX=0.25;entryY=1;entryDx=0;entryDy=0;strokeWidth=1;fontSize=12;endArrow=blockThin;endFill=1;" edge="1" parent="1" source="RhuaSglBGjlRyo17qpxD-56" target="RhuaSglBGjlRyo17qpxD-43">
          <mxGeometry relative="1" as="geometry">
            <Array as="points">
              <mxPoint x="-147" y="210" />
              <mxPoint x="-167" y="210" />
            </Array>
          </mxGeometry>
        </mxCell>
        <mxCell id="RhuaSglBGjlRyo17qpxD-55" style="edgeStyle=orthogonalEdgeStyle;rounded=0;orthogonalLoop=1;jettySize=auto;html=1;exitX=0.5;exitY=0;exitDx=0;exitDy=0;entryX=0;entryY=0.5;entryDx=0;entryDy=0;strokeWidth=1;fontSize=12;endArrow=blockThin;endFill=1;" edge="1" parent="1" source="RhuaSglBGjlRyo17qpxD-56" target="RhuaSglBGjlRyo17qpxD-41">
          <mxGeometry relative="1" as="geometry">
            <Array as="points">
              <mxPoint x="-147" y="220" />
              <mxPoint x="-207" y="220" />
              <mxPoint x="-207" y="130" />
            </Array>
          </mxGeometry>
        </mxCell>
        <mxCell id="RhuaSglBGjlRyo17qpxD-56" value="&lt;font style=&quot;font-size: 16px;&quot;&gt;+&lt;/font&gt;" style="ellipse;whiteSpace=wrap;html=1;aspect=fixed;strokeColor=#000000;strokeWidth=1;fontStyle=0" vertex="1" parent="1">
          <mxGeometry x="-157" y="240" width="20" height="20" as="geometry" />
        </mxCell>
        <mxCell id="RhuaSglBGjlRyo17qpxD-57" style="edgeStyle=orthogonalEdgeStyle;rounded=0;orthogonalLoop=1;jettySize=auto;html=1;exitX=0.5;exitY=0;exitDx=0;exitDy=0;fontSize=20;strokeWidth=1;endArrow=blockThin;endFill=1;fontStyle=0" edge="1" parent="1" source="RhuaSglBGjlRyo17qpxD-58" target="RhuaSglBGjlRyo17qpxD-56">
          <mxGeometry relative="1" as="geometry" />
        </mxCell>
        <mxCell id="RhuaSglBGjlRyo17qpxD-58" value="Positional Encoding" style="whiteSpace=wrap;align=center;verticalAlign=middle;fontStyle=0;strokeWidth=1;fillColor=#fad9d5;strokeColor=#000000;" vertex="1" parent="1">
          <mxGeometry x="-187" y="280" width="80" height="30" as="geometry" />
        </mxCell>
        <mxCell id="RhuaSglBGjlRyo17qpxD-59" value="" style="edgeStyle=segmentEdgeStyle;endArrow=blockThin;html=1;curved=0;rounded=0;endSize=8;startSize=8;fontSize=20;exitX=0.5;exitY=0;exitDx=0;exitDy=0;entryX=0;entryY=0.5;entryDx=0;entryDy=0;strokeWidth=1;endFill=1;fontStyle=0" edge="1" parent="1" source="RhuaSglBGjlRyo17qpxD-53" target="RhuaSglBGjlRyo17qpxD-56">
          <mxGeometry width="50" height="50" relative="1" as="geometry">
            <mxPoint x="-147" y="370" as="sourcePoint" />
            <mxPoint x="53" y="350" as="targetPoint" />
            <Array as="points">
              <mxPoint x="-147" y="320" />
              <mxPoint x="-207" y="320" />
              <mxPoint x="-207" y="250" />
            </Array>
          </mxGeometry>
        </mxCell>
        <mxCell id="RhuaSglBGjlRyo17qpxD-60" value="H&lt;sub&gt;LANG&lt;/sub&gt;, H&lt;sub style=&quot;border-color: var(--border-color);&quot;&gt;1&lt;/sub&gt;, H&lt;sub style=&quot;border-color: var(--border-color);&quot;&gt;1&lt;/sub&gt;, H&lt;sub style=&quot;border-color: var(--border-color);&quot;&gt;1&lt;/sub&gt;, H&lt;sub style=&quot;border-color: var(--border-color);&quot;&gt;2&lt;/sub&gt;, H&lt;sub style=&quot;border-color: var(--border-color);&quot;&gt;2&lt;/sub&gt;, H&lt;sub style=&quot;border-color: var(--border-color);&quot;&gt;2&lt;/sub&gt;,&amp;nbsp;..., H&lt;sub style=&quot;border-color: var(--border-color);&quot;&gt;n&lt;/sub&gt;, H&lt;sub style=&quot;border-color: var(--border-color);&quot;&gt;n&lt;/sub&gt;, H&lt;sub style=&quot;border-color: var(--border-color);&quot;&gt;n&lt;/sub&gt;, H&lt;sub&gt;END&lt;/sub&gt;" style="text;html=1;strokeColor=none;fillColor=none;align=center;verticalAlign=middle;whiteSpace=wrap;rounded=0;fontSize=12;" vertex="1" parent="1">
          <mxGeometry x="-247" y="390" width="200" height="30" as="geometry" />
        </mxCell>
        <mxCell id="RhuaSglBGjlRyo17qpxD-61" value="H&lt;sub&gt;LANG&lt;/sub&gt;, H&lt;sub style=&quot;border-color: var(--border-color);&quot;&gt;1&lt;/sub&gt;, H&lt;sub style=&quot;border-color: var(--border-color);&quot;&gt;2&lt;/sub&gt;,&amp;nbsp;..., H&lt;sub style=&quot;border-color: var(--border-color);&quot;&gt;n&lt;/sub&gt;, H&lt;sub&gt;END&lt;/sub&gt;" style="text;html=1;strokeColor=none;fillColor=none;align=center;verticalAlign=middle;whiteSpace=wrap;rounded=0;fontSize=12;" vertex="1" parent="1">
          <mxGeometry x="-487" y="60" width="200" height="30" as="geometry" />
        </mxCell>
      </root>
    </mxGraphModel>
  </diagram>
</mxfile>
